<?xml version="1.0" standalone="no"?>
<!DOCTYPE svg PUBLIC "-//W3C//DTD SVG 20010904//EN"
 "http://www.w3.org/TR/2001/REC-SVG-20010904/DTD/svg10.dtd">
<svg version="1.0" xmlns="http://www.w3.org/2000/svg"
 width="2363.000000pt" height="2171.000000pt" viewBox="0 0 2363.000000 2171.000000"
 preserveAspectRatio="xMidYMid meet">

<g transform="translate(0.000000,2171.000000) scale(0.100000,-0.100000)"
fill="#000000" stroke="none">
<path d="M7335 18164 c-372 -40 -770 -220 -1135 -513 -134 -108 -381 -355
-491 -491 -91 -113 -159 -204 -159 -214 0 -3 36 -6 80 -6 182 0 554 -64 815
-140 444 -130 878 -351 1215 -620 353 -281 666 -667 879 -1083 251 -491 421
-1126 467 -1745 l7 -93 34 33 c50 49 179 216 275 358 408 602 616 1249 595
1855 -24 698 -326 1339 -907 1925 -393 395 -788 628 -1206 710 -106 21 -370
34 -469 24z"/>
<path d="M5500 15970 c-665 -43 -1303 -360 -1870 -929 -421 -423 -643 -836
-701 -1301 -15 -126 -6 -346 21 -484 94 -481 420 -998 891 -1411 114 -100 259
-215 272 -215 4 0 7 21 7 48 0 66 25 274 50 412 63 350 207 769 367 1070 588
1104 1649 1736 3132 1864 96 9 176 17 178 20 8 8 -219 195 -357 293 -440 313
-940 526 -1413 603 -110 18 -387 42 -442 38 -11 0 -72 -4 -135 -8z"/>
<path d="M12830 15577 c0 -13 9 -104 20 -203 60 -551 118 -1332 150 -2039 28
-621 34 -984 34 -1850 0 -866 -6 -1229 -34 -1850 -39 -869 -107 -1709 -196
-2442 l-7 -53 1092 0 c600 0 1091 3 1091 6 0 3 -25 128 -55 277 -174 866 -313
1951 -381 2965 l-7 102 278 0 c781 0 1589 91 2230 251 775 194 1357 460 1865
853 125 96 419 386 514 506 343 432 554 939 641 1533 50 345 69 651 62 977 -8
350 -37 594 -105 870 l-28 115 -3582 3 -3582 2 0 -23z m3450 -1817 c657 -26
1047 -109 1193 -255 59 -58 72 -111 63 -244 -22 -292 -214 -523 -579 -696
-105 -49 -304 -121 -407 -145 -246 -59 -427 -91 -650 -114 -30 -4 -68 -8 -85
-11 -76 -12 -625 -35 -830 -35 -259 1 -534 15 -545 27 -16 18 37 1404 55 1421
10 10 715 47 1040 55 289 7 502 6 745 -3z"/>
<path d="M10922 15385 c-43 -524 -223 -1098 -483 -1541 -333 -568 -797 -999
-1394 -1297 -460 -230 -1035 -386 -1615 -437 -69 -6 -145 -13 -170 -17 l-45
-5 45 -41 c312 -280 780 -559 1175 -700 656 -235 1294 -235 1885 0 326 129
656 339 945 600 704 637 984 1305 835 1995 -93 432 -394 911 -816 1300 -92 85
-247 213 -320 265 l-31 22 -11 -144z"/>
<path d="M5960 13770 c-415 -505 -691 -1105 -782 -1695 -26 -170 -31 -522 -10
-675 73 -518 269 -954 636 -1415 107 -133 405 -432 536 -535 685 -543 1373
-634 2078 -273 124 63 319 191 442 290 118 94 375 348 473 467 95 113 196 248
197 259 0 4 -29 7 -64 7 -253 0 -698 86 -1026 198 -1272 436 -2081 1451 -2329
2922 -30 179 -61 429 -61 493 0 20 -4 38 -9 41 -4 3 -41 -35 -81 -84z"/>
<path d="M16650 9294 c-76 -10 -209 -48 -292 -84 -130 -56 -243 -136 -349
-249 -203 -213 -294 -443 -294 -741 0 -298 91 -528 294 -741 148 -157 315
-255 526 -310 76 -20 115 -23 250 -23 135 0 174 3 250 23 211 55 378 153 526
310 203 213 294 443 294 741 0 298 -91 528 -294 741 -147 156 -316 256 -521
308 -84 22 -304 36 -390 25z m224 -353 c14 -14 30 -41 36 -60 5 -20 10 -147
10 -283 l0 -248 310 0 310 0 0 -48 c0 -71 -34 -132 -90 -159 -42 -22 -55 -23
-287 -23 l-243 0 -2 -342 -3 -343 -45 -3 c-61 -4 -108 23 -140 79 -25 44 -25
46 -28 327 l-3 282 -315 0 -314 0 0 75 c0 72 2 77 34 113 l34 37 281 3 281 3
0 311 0 310 74 -4 c62 -3 79 -7 100 -27z"/>
<path d="M11005 4989 c-42 -12 -95 -69 -105 -113 -17 -76 17 -146 90 -183 54
-28 111 -29 165 -4 53 24 81 56 94 109 35 131 -97 234 -244 191z"/>
<path d="M16940 4205 l0 -795 155 0 155 0 0 795 0 795 -155 0 -155 0 0 -795z"/>
<path d="M4585 4930 c-151 -27 -274 -90 -375 -189 -116 -114 -185 -248 -215
-416 -76 -436 132 -810 505 -911 82 -23 309 -26 390 -5 257 64 450 259 522
526 30 115 31 366 0 476 -70 255 -247 439 -484 505 -64 18 -274 26 -343 14z
m299 -309 c144 -71 219 -227 219 -456 0 -300 -130 -476 -362 -492 -260 -18
-424 175 -423 497 1 156 33 260 110 357 75 93 173 135 309 130 67 -3 92 -9
147 -36z"/>
<path d="M15680 4166 l0 -756 160 0 160 0 0 259 0 258 163 6 c127 4 176 9 227
26 143 46 266 147 322 266 55 118 58 293 8 429 -41 109 -153 201 -295 242 -50
14 -117 18 -402 21 l-343 5 0 -756z m630 468 c73 -40 110 -108 110 -198 0 -82
-15 -129 -53 -173 -52 -59 -103 -76 -244 -81 l-123 -4 0 247 0 247 128 -4
c120 -3 131 -5 182 -34z"/>
<path d="M10410 4788 c-36 -11 -102 -31 -147 -44 l-83 -25 0 -120 0 -119 -90
0 -90 0 0 -120 0 -120 89 0 90 0 3 -312 c3 -302 4 -315 26 -363 30 -66 83
-118 146 -147 44 -19 67 -22 176 -22 95 0 134 4 163 16 l37 17 0 115 0 115
-37 -16 c-47 -19 -125 -13 -154 13 -45 39 -49 69 -49 334 l0 250 120 0 120 0
0 120 0 120 -120 0 -120 0 0 165 c0 91 -3 165 -7 164 -5 0 -37 -10 -73 -21z"/>
<path d="M6210 4484 c-77 -21 -130 -55 -189 -121 l-51 -57 0 87 0 87 -155 0
-155 0 0 -780 0 -780 155 0 155 0 0 310 c0 171 2 310 5 310 2 0 23 -20 46 -45
57 -62 129 -95 221 -102 141 -11 266 36 360 135 99 103 145 226 154 406 18
344 -153 568 -431 565 -33 0 -85 -7 -115 -15z m115 -250 c103 -53 145 -253 91
-429 -63 -207 -319 -237 -419 -50 -20 36 -22 56 -22 180 0 133 1 143 27 192
30 56 78 100 130 120 48 18 146 11 193 -13z"/>
<path d="M7306 4484 c-171 -41 -314 -180 -372 -361 -24 -75 -29 -253 -10 -343
38 -180 145 -301 316 -361 56 -20 85 -23 215 -23 157 0 240 13 332 54 l43 19
0 109 0 109 -55 -28 c-126 -63 -321 -77 -419 -29 -76 36 -136 124 -136 199 l0
21 350 0 350 0 0 108 c0 183 -38 304 -126 401 -105 117 -308 169 -488 125z
m224 -216 c55 -28 87 -81 96 -161 l7 -57 -208 0 -207 0 7 37 c14 78 76 161
140 189 47 20 115 17 165 -8z"/>
<path d="M8640 4491 c-74 -23 -141 -83 -183 -166 l-26 -50 -1 103 0 102 -155
0 -155 0 0 -535 0 -535 155 0 155 0 0 263 c0 144 5 291 11 327 22 139 98 221
212 228 38 2 78 -2 105 -11 l42 -15 0 143 c0 121 -2 144 -16 149 -21 8 -113 6
-144 -3z"/>
<path d="M9239 4486 c-89 -16 -183 -42 -221 -62 l-28 -15 0 -119 0 -119 58 35
c78 48 171 75 272 81 75 4 90 2 129 -19 57 -29 82 -64 88 -121 6 -53 32 -44
-210 -77 -170 -24 -222 -38 -294 -80 -98 -56 -147 -149 -147 -280 0 -70 4 -95
25 -140 32 -70 79 -116 149 -149 47 -22 69 -26 150 -26 132 0 186 20 267 99
l63 62 0 -73 0 -73 151 0 150 0 -3 383 c-4 362 -5 385 -26 447 -58 170 -178
249 -392 256 -60 2 -137 -2 -181 -10z m275 -763 c-60 -124 -210 -162 -302 -78
-34 31 -37 38 -37 88 0 105 52 141 239 166 l121 17 3 -69 c2 -59 -1 -78 -24
-124z"/>
<path d="M11883 4489 c-158 -26 -311 -130 -375 -254 -43 -82 -60 -149 -65
-256 -15 -288 116 -488 372 -565 45 -14 93 -18 190 -18 145 0 207 13 310 67
73 39 160 125 198 194 85 159 89 406 9 571 -37 78 -133 172 -213 210 -115 55
-283 75 -426 51z m212 -240 c111 -28 167 -126 168 -294 2 -232 -94 -340 -285
-322 -125 11 -198 91 -218 240 -11 80 -1 181 24 241 48 115 174 169 311 135z"/>
<path d="M13350 4485 c-30 -9 -73 -27 -96 -40 -41 -24 -124 -109 -124 -126 0
-5 -4 -9 -10 -9 -6 0 -10 35 -10 85 l0 85 -155 0 -155 0 0 -535 0 -535 154 0
155 0 3 338 c4 373 5 381 71 451 39 41 84 61 137 61 77 0 132 -38 167 -115 16
-35 18 -79 21 -387 l3 -348 155 0 154 0 0 358 c-1 404 -8 473 -61 572 -36 68
-69 98 -144 131 -64 28 -189 35 -265 14z"/>
<path d="M14405 4494 c-222 -35 -348 -155 -348 -329 1 -124 56 -211 170 -268
26 -14 97 -41 157 -62 153 -54 203 -107 166 -176 -42 -77 -266 -77 -420 1 -33
16 -64 30 -70 30 -6 0 -10 -44 -10 -120 0 -137 -7 -127 105 -156 89 -23 323
-26 405 -5 143 36 243 111 281 210 17 45 20 71 17 133 -8 139 -71 207 -255
277 -211 81 -243 103 -243 163 0 102 210 131 386 53 l54 -24 0 118 0 119 -67
17 c-66 16 -268 28 -328 19z"/>
<path d="M19135 4494 c-222 -35 -348 -155 -348 -329 1 -124 56 -211 170 -268
26 -14 97 -41 157 -62 153 -54 203 -107 166 -176 -42 -77 -266 -77 -420 1 -33
16 -64 30 -70 30 -6 0 -10 -44 -10 -120 0 -137 -7 -127 105 -156 89 -23 323
-26 405 -5 143 36 243 111 281 210 17 45 20 71 17 133 -8 139 -71 207 -255
277 -211 81 -243 103 -243 163 0 102 210 131 386 53 l54 -24 0 118 0 119 -67
17 c-66 16 -268 28 -328 19z"/>
<path d="M10920 3945 l0 -535 155 0 155 0 0 535 0 535 -155 0 -155 0 0 -535z"/>
<path d="M17520 4104 c0 -432 5 -475 70 -572 61 -89 134 -128 260 -139 132
-11 247 37 327 135 l43 53 0 -86 0 -85 155 0 155 0 0 535 0 535 -155 0 -155 0
0 -333 c0 -374 -3 -397 -67 -461 -74 -73 -205 -75 -270 -5 -49 54 -53 86 -53
455 l0 344 -155 0 -155 0 0 -376z"/>
</g>
</svg>
